<svg width="37" height="46" viewBox="0 0 37 46" fill="none" xmlns="http://www.w3.org/2000/svg">
<path d="M10.5655 19.6931V10.7343L6.06378 15.3347C6.06378 15.3347 4.083 17.3928 2.76251 18.7246C1.68213 19.6931 1.68213 21.1459 1.68213 21.1459V28.5308L10.5655 19.6931Z" fill="#161513" stroke="#161513"/>
<path d="M34.9347 1.8965L1.8022 34.8262L14.0468 34.8262L21.8497 42.6955C21.8497 42.6955 22.5111 43.3094 23.0502 43.664C23.7864 44.1483 24.7308 44.5115 24.7308 44.5115L34.8146 44.5115C30.9522 40.6489 20.501 30.1975 19.5686 29.2571C23.2466 25.5538 32.1735 16.6292 33.4938 15.3C35.0547 13.6398 34.9347 11.9449 34.9347 11.9449L34.9347 1.8965Z" fill="#161513" stroke="#161513"/>
</svg>
