<svg width="37" height="46" viewBox="0 0 37 46" fill="none" xmlns="http://www.w3.org/2000/svg">
<path d="M10.5655 19.7966V10.8378L6.06378 15.4382C6.06378 15.4382 4.083 17.4964 2.76251 18.8281C1.68213 19.7966 1.68213 21.2494 1.68213 21.2494V28.6344L10.5655 19.7966Z" fill="white" stroke="white"/>
<path d="M34.9347 2.00001L1.8022 34.9297L14.0468 34.9297L21.8497 42.799C21.8497 42.799 22.5111 43.4129 23.0502 43.7675C23.7864 44.2518 24.7308 44.615 24.7308 44.615L34.8146 44.615C30.9522 40.7524 20.501 30.301 19.5686 29.3606C23.2466 25.6574 32.1735 16.7327 33.4938 15.4036C35.0547 13.7433 34.9347 12.0484 34.9347 12.0484L34.9347 2.00001Z" fill="white" stroke="white"/>
</svg>
