<svg width="154" height="60" viewBox="0 0 154 60" fill="none" xmlns="http://www.w3.org/2000/svg">
<path d="M10.5655 19.7966V10.8378L6.06384 15.4382C6.06384 15.4382 4.08306 17.4964 2.76257 18.8281C1.68219 19.7966 1.68219 21.2494 1.68219 21.2494V28.6344L10.5655 19.7966Z" fill="#1C1C22" stroke="#1C1C22"/>
<path d="M34.9347 2.00001L1.8022 34.9297L14.0468 34.9297L21.8497 42.799C21.8497 42.799 22.5111 43.4129 23.0502 43.7675C23.7864 44.2518 24.7308 44.615 24.7308 44.615L34.8146 44.615C30.9522 40.7524 20.501 30.301 19.5686 29.3606C23.2466 25.6574 32.1735 16.7327 33.4938 15.4036C35.0547 13.7433 34.9347 12.0484 34.9347 12.0484L34.9347 2.00001Z" fill="#1C1C22" stroke="#1C1C22"/>
<path d="M55.168 27.772L44.192 53.884H39.424L43.264 45.052L36.16 27.772H41.184L45.76 40.156L50.4 27.772H55.168ZM62.063 30.332C62.639 29.5213 63.4283 28.8493 64.431 28.316C65.455 27.7613 66.6177 27.484 67.919 27.484C69.4337 27.484 70.799 27.8573 72.015 28.604C73.2523 29.3507 74.223 30.4173 74.927 31.804C75.6523 33.1693 76.015 34.7587 76.015 36.572C76.015 38.3853 75.6523 39.996 74.927 41.404C74.223 42.7907 73.2523 43.868 72.015 44.636C70.799 45.404 69.4337 45.788 67.919 45.788C66.6177 45.788 65.4657 45.5213 64.463 44.988C63.4817 44.4547 62.6817 43.7827 62.063 42.972V53.948H57.583V27.772H62.063V30.332ZM71.439 36.572C71.439 35.5053 71.215 34.588 70.767 33.82C70.3403 33.0307 69.7643 32.4333 69.039 32.028C68.335 31.6227 67.567 31.42 66.735 31.42C65.9243 31.42 65.1563 31.6333 64.431 32.06C63.727 32.4653 63.151 33.0627 62.703 33.852C62.2763 34.6413 62.063 35.5693 62.063 36.636C62.063 37.7027 62.2763 38.6307 62.703 39.42C63.151 40.2093 63.727 40.8173 64.431 41.244C65.1563 41.6493 65.9243 41.852 66.735 41.852C67.567 41.852 68.335 41.6387 69.039 41.212C69.7643 40.7853 70.3403 40.1773 70.767 39.388C71.215 38.5987 71.439 37.66 71.439 36.572ZM89.2545 27.516C90.5985 27.516 91.7932 27.8147 92.8385 28.412C93.8838 28.988 94.6945 29.852 95.2705 31.004C95.8678 32.1347 96.1665 33.5 96.1665 35.1V45.5H91.6865V35.708C91.6865 34.3 91.3345 33.2227 90.6305 32.476C89.9265 31.708 88.9665 31.324 87.7505 31.324C86.5132 31.324 85.5318 31.708 84.8065 32.476C84.1025 33.2227 83.7505 34.3 83.7505 35.708V45.5H79.2705V21.82H83.7505V29.98C84.3265 29.212 85.0945 28.6147 86.0545 28.188C87.0145 27.74 88.0812 27.516 89.2545 27.516ZM99.2747 36.572C99.2747 34.78 99.6267 33.1907 100.331 31.804C101.056 30.4173 102.027 29.3507 103.243 28.604C104.48 27.8573 105.856 27.484 107.371 27.484C108.693 27.484 109.845 27.7507 110.827 28.284C111.829 28.8173 112.629 29.4893 113.227 30.3V27.772H117.739V45.5H113.227V42.908C112.651 43.74 111.851 44.4333 110.827 44.988C109.824 45.5213 108.661 45.788 107.339 45.788C105.845 45.788 104.48 45.404 103.243 44.636C102.027 43.868 101.056 42.7907 100.331 41.404C99.6267 39.996 99.2747 38.3853 99.2747 36.572ZM113.227 36.636C113.227 35.548 113.013 34.62 112.587 33.852C112.16 33.0627 111.584 32.4653 110.859 32.06C110.133 31.6333 109.355 31.42 108.523 31.42C107.691 31.42 106.923 31.6227 106.219 32.028C105.515 32.4333 104.939 33.0307 104.491 33.82C104.064 34.588 103.851 35.5053 103.851 36.572C103.851 37.6387 104.064 38.5773 104.491 39.388C104.939 40.1773 105.515 40.7853 106.219 41.212C106.944 41.6387 107.712 41.852 108.523 41.852C109.355 41.852 110.133 41.6493 110.859 41.244C111.584 40.8173 112.16 40.22 112.587 39.452C113.013 38.6627 113.227 37.724 113.227 36.636ZM144.13 27.516C146.306 27.516 148.056 28.188 149.378 29.532C150.722 30.8547 151.394 32.7107 151.394 35.1V45.5H146.914V35.708C146.914 34.3213 146.562 33.2653 145.858 32.54C145.154 31.7933 144.194 31.42 142.978 31.42C141.762 31.42 140.792 31.7933 140.066 32.54C139.362 33.2653 139.01 34.3213 139.01 35.708V45.5H134.53V35.708C134.53 34.3213 134.178 33.2653 133.474 32.54C132.77 31.7933 131.81 31.42 130.594 31.42C129.357 31.42 128.376 31.7933 127.65 32.54C126.946 33.2653 126.594 34.3213 126.594 35.708V45.5H122.114V27.772H126.594V29.916C127.17 29.1693 127.906 28.5827 128.802 28.156C129.72 27.7293 130.722 27.516 131.81 27.516C133.197 27.516 134.434 27.8147 135.522 28.412C136.61 28.988 137.453 29.82 138.05 30.908C138.626 29.884 139.458 29.0627 140.546 28.444C141.656 27.8253 142.85 27.516 144.13 27.516Z" fill="#1C1C22"/>
</svg>
