<svg width="1753" height="1753" viewBox="0 0 1753 1753" fill="none" xmlns="http://www.w3.org/2000/svg">
<rect width="1753" height="1753" rx="876.5" fill="black"/>
<path d="M903 297C980.557 219.443 954.027 97.8655 943.203 58.7778C941.492 52.5976 940.199 45.5402 944.942 41.2243C950.669 36.0129 961.205 31.8632 972.184 29.6819C982.76 27.5807 993.734 22.6198 1004.28 24.874C1019.26 28.0764 1032.34 51.733 1046.67 109.818C1048.25 116.203 1048.75 122.89 1048.3 129.452C1043.56 198.773 1046.55 198.692 1000.65 313.862C997.586 321.544 997.648 329.659 1004.26 334.622C1012.07 340.481 1027.26 349.266 1056.81 361.275C1070.44 366.816 1082.63 376.161 1088.22 389.773C1091.83 398.569 1094.66 407.87 1097.13 418.432C1098.83 425.725 1098.95 433.302 1097.72 440.689C1087.84 499.919 1072.05 549.803 1054.32 586.706C1043.68 608.859 1018.93 620.027 995.243 613.485C981.495 609.689 968.671 604.631 965.5 598.5C958.481 584.929 996.57 549.024 996.564 462.504C996.564 450.406 992.604 438.363 983.395 430.518C973.686 422.246 959.271 413.654 940.5 411.5C920.851 411.219 858.467 524.054 837.138 552.231C833.367 557.212 827.361 558.216 821.181 557.305C802.038 554.484 760.297 546.264 763 528.499C766.5 505.5 817.5 382.499 903 297Z" fill="white" stroke="white" stroke-width="4"/>
<path d="M152.731 995.664C126.752 1012.84 83.319 1019.25 65.4993 1021.23C60.7301 1021.76 56.279 1018.98 54.7373 1014.44C28.0453 935.766 22.2224 747.046 72.0002 592.5C114.394 460.879 214.95 312.45 256.572 285.002C258.179 283.943 260.017 283.477 261.939 283.57C289.778 284.912 303.663 305.361 320.762 327.834C324.434 332.661 323.669 339.555 319.146 343.596C235.319 418.505 171.113 586.993 167.386 627.492C166.913 632.634 171.415 633.75 175.463 630.543C254.351 568.038 312.512 499.286 347.816 487.312C349.571 486.716 351.467 486.728 353.251 487.231C390.662 497.785 393.828 524.576 400.026 556.146C400.632 559.233 399.932 562.46 397.978 564.925C362.516 609.657 316.519 622.831 279.195 694.638C276.943 698.97 278.01 704.258 281.576 707.594C349.327 770.972 351.191 807.98 375.684 884.896C376.518 887.516 376.36 890.419 375.188 892.906C352.049 941.972 335.685 945.776 302.987 953.107C297.155 954.415 291.263 950.745 289.759 944.961L288.434 939.864C243.622 767.475 242.121 761.7 164.816 761.507C159.901 761.494 155.531 764.755 154.461 769.552C140.675 831.418 167.076 900.458 157.057 988.392C156.722 991.329 155.198 994.033 152.731 995.664Z" fill="white" stroke="white" stroke-width="4"/>
<path fill-rule="evenodd" clip-rule="evenodd" d="M743.574 588.014C815.846 587.374 881.317 608.47 918.56 627.795C933.205 635.394 940.186 651.592 938.819 668.034C924.225 843.467 907.265 1023.25 848.864 1131.46C842.611 1143.04 831.241 1150.82 818.318 1153.32C722.768 1171.81 664.586 1167.12 586.195 1125.06C570.443 1116.6 561.4 1099.54 562.227 1081.69C573.785 832.258 606.777 717.544 711.443 602.649C719.708 593.575 731.3 588.123 743.574 588.014ZM754.801 691.816C800.631 678.158 830.46 670.877 854.174 694.432C861.361 701.571 863.909 711.965 863.565 722.09C859.252 848.848 837.094 925.711 785.223 1049.27C780.317 1060.95 771.057 1070.96 758.525 1072.86C718.399 1078.95 679.921 1053.8 663.859 1041.47C658.521 1037.37 654.415 1031.93 653.044 1025.34C639.977 962.521 688.844 768.423 734.403 705.33C739.325 698.513 746.742 694.218 754.801 691.816Z" fill="white"/>
<path d="M918.56 627.795L917.639 629.57L918.56 627.795ZM743.574 588.014L743.592 590.014L743.574 588.014ZM938.819 668.034L936.826 667.868L938.819 668.034ZM848.864 1131.46L847.104 1130.51L848.864 1131.46ZM818.318 1153.32L818.698 1155.28L818.318 1153.32ZM586.195 1125.06L585.249 1126.82H585.249L586.195 1125.06ZM562.227 1081.69L560.229 1081.59L562.227 1081.69ZM711.443 602.649L709.964 601.302V601.302L711.443 602.649ZM854.174 694.432L852.764 695.851L854.174 694.432ZM754.801 691.816L755.372 693.733L754.801 691.816ZM863.565 722.09L865.564 722.158L863.565 722.09ZM785.223 1049.27L787.067 1050.04L785.223 1049.27ZM758.525 1072.86L758.225 1070.89H758.225L758.525 1072.86ZM663.859 1041.47L662.64 1043.05H662.64L663.859 1041.47ZM653.044 1025.34L651.086 1025.75L653.044 1025.34ZM734.403 705.33L732.781 704.159L734.403 705.33ZM919.481 626.02C881.98 606.561 816.19 585.371 743.556 586.014L743.592 590.014C815.502 589.377 880.653 610.379 917.639 629.57L919.481 626.02ZM940.812 668.2C942.231 651.137 934.991 634.068 919.481 626.02L917.639 629.57C931.418 636.72 938.142 652.048 936.826 667.868L940.812 668.2ZM850.624 1132.41C879.983 1078.01 898.867 1005.75 912.242 925.285C925.622 844.792 933.516 755.909 940.812 668.2L936.826 667.868C929.528 755.592 921.645 844.32 908.296 924.629C894.943 1004.96 876.146 1076.7 847.104 1130.51L850.624 1132.41ZM818.698 1155.28C832.156 1152.68 844.062 1144.57 850.624 1132.41L847.104 1130.51C841.161 1141.52 830.326 1148.96 817.938 1151.35L818.698 1155.28ZM585.249 1126.82C624.611 1147.94 658.998 1159.73 695.596 1163.88C732.17 1168.03 770.828 1164.55 818.698 1155.28L817.938 1151.35C770.257 1160.58 732.049 1164 696.047 1159.91C660.069 1155.83 626.17 1144.24 587.141 1123.29L585.249 1126.82ZM560.229 1081.59C559.368 1100.17 568.775 1117.98 585.249 1126.82L587.141 1123.29C572.112 1115.23 563.431 1098.92 564.225 1081.78L560.229 1081.59ZM709.964 601.302C657.452 658.946 622.878 716.603 600.008 791.131C577.156 865.596 566.01 956.835 560.229 1081.59L564.225 1081.78C570.002 957.111 581.131 866.278 603.832 792.305C626.513 718.394 660.768 661.246 712.921 603.995L709.964 601.302ZM743.556 586.014C730.697 586.128 718.584 591.839 709.964 601.302L712.921 603.995C720.832 595.311 731.904 590.118 743.592 590.014L743.556 586.014ZM855.583 693.013C843.267 680.779 829.31 676.571 812.709 677.17C796.258 677.764 777.094 683.085 754.229 689.899L755.372 693.733C778.337 686.889 797.003 681.74 812.853 681.168C828.552 680.601 841.367 684.529 852.764 695.851L855.583 693.013ZM865.564 722.158C865.919 711.708 863.304 700.682 855.583 693.013L852.764 695.851C859.418 702.46 861.899 712.222 861.566 722.022L865.564 722.158ZM787.067 1050.04C839.001 926.336 861.24 849.229 865.564 722.158L861.566 722.022C857.264 848.467 835.188 925.085 783.379 1048.49L787.067 1050.04ZM758.825 1074.84C772.295 1072.8 782.005 1062.1 787.067 1050.04L783.379 1048.49C778.628 1059.81 769.818 1069.13 758.225 1070.89L758.825 1074.84ZM662.64 1043.05C670.751 1049.28 684.535 1058.76 701.386 1065.91C718.229 1073.07 738.269 1077.96 758.825 1074.84L758.225 1070.89C738.655 1073.85 719.394 1069.22 702.95 1062.23C686.516 1055.25 673.029 1045.99 665.077 1039.88L662.64 1043.05ZM651.086 1025.75C652.578 1032.93 657.03 1038.74 662.64 1043.05L665.077 1039.88C660.011 1035.99 656.251 1030.94 655.002 1024.94L651.086 1025.75ZM732.781 704.159C709.764 736.036 686.085 800.656 669.8 864.947C661.645 897.142 655.32 929.349 651.852 957.466C648.392 985.523 647.749 1009.71 651.086 1025.75L655.002 1024.94C651.806 1009.57 652.372 985.932 655.822 957.955C659.265 930.039 665.554 897.999 673.678 865.93C689.949 801.693 713.483 737.718 736.024 706.501L732.781 704.159ZM754.229 689.899C745.887 692.386 738.036 696.883 732.781 704.159L736.024 706.501C740.615 700.143 747.597 696.05 755.372 693.733L754.229 689.899Z" fill="white"/>
<path d="M547.261 363.727C531.987 362.477 509.611 362.132 498.416 362.036C493.819 361.997 489.222 362.65 485.241 364.948C479.215 368.428 470.106 375.437 463.764 388.274C462.88 390.064 461.988 391.845 460.977 393.566C457.16 400.067 447.122 417.581 442 430.5C433.8 451.181 429.572 481.839 427.715 499.215C426.789 507.879 428.762 516.549 433.012 524.156L498.011 640.491C502.558 648.629 504.465 657.978 503.469 667.247L499.363 705.468C498.792 710.78 497.28 715.948 494.897 720.73L470.486 769.722C466.052 778.621 455.307 782.329 446.329 778.059C443.491 776.709 441.05 774.649 439.243 772.079L382.874 691.919C373.994 679.289 355.425 678.86 345.97 691.066C340.76 697.791 339.7 706.848 343.215 714.595L375.5 785.75L413.5 869.5C429.819 919.379 494.183 923.321 505 917.5C520.253 909.385 545.886 814.641 594.323 685.435C596.406 679.88 599.6 674.806 603.589 670.415C647.632 621.929 706.626 539.462 731.794 503.565C739.581 492.459 741.755 478.449 737.89 465.448L734.789 455.017C730.269 439.814 717.805 427.528 702.091 429.677C673.517 433.586 643.768 450.45 636.287 454.913C635.068 455.64 633.937 456.434 632.814 457.301L579.52 498.425C574.087 502.618 567.154 504.359 560.384 503.231C546.54 500.923 537.404 487.55 540.287 473.814L558.865 385.315C561.201 374.186 558.594 364.655 547.261 363.727Z" fill="white" stroke="white" stroke-width="4"/>
<path d="M477.397 936.783C416.612 953.05 220.559 996.467 63.8223 1087.03C57.8875 1090.46 53.683 1096.45 54.1034 1103.29C55.9787 1133.82 79.8634 1175.59 87.3029 1187.93C88.7481 1190.33 90.688 1192.56 93.4868 1192.62C113.224 1193.03 177.959 1147.97 206.891 1127.76C216.746 1120.87 221.669 1129.46 223.995 1141.26C237.121 1207.82 256.201 1413.34 350.493 1551.49C356.89 1560.86 359.536 1574.58 369.365 1568.91C381.932 1561.66 403.485 1546.5 426.787 1526.63C434.689 1519.89 436.703 1508.59 432.04 1499.31C387.814 1411.31 348.175 1315.55 337.19 1119.25C336.734 1111.09 340.121 1102.64 346.186 1097.17C351.019 1092.81 365.965 1088.52 488.422 1055.54C499.998 1052.42 507.335 1040.94 505.291 1029.13C501.764 1008.74 496.602 977.389 493.865 953.572C492.342 940.32 490.282 933.335 477.397 936.783Z" fill="white" stroke="white" stroke-width="4"/>
<path d="M459.109 1104.93C441.599 1110.74 413.134 1121.63 403.116 1133.86C399.317 1138.5 400.429 1145 402.175 1150.74C459.177 1338.04 469.467 1440.64 461.645 1596.13C460.729 1614.35 466.463 1633.1 483.221 1640.29C498.9 1647.02 519.616 1654.78 536.986 1661.05C557.388 1668.42 570.84 1664.01 570.691 1642.31C570.443 1606.25 570.775 1550.93 574.882 1528.28C575.971 1522.27 579.84 1517.37 585.149 1514.36C597.966 1507.08 614.47 1503.69 627.761 1509.74C637.138 1514.01 640.399 1524.99 641.146 1535.26L651.361 1675.72C651.784 1681.53 652.931 1687.47 656.809 1691.83C666.787 1703.03 687.18 1711.78 710.247 1719.18C723.734 1723.51 738.175 1719.99 741.314 1706.17C753.096 1654.34 738.939 1517.6 723.908 1456.13C718.673 1434.73 694.12 1423.04 672.085 1423.1C636.428 1423.19 587.065 1427.13 567.952 1424.54C561.566 1423.68 559.536 1417.06 558.655 1410.68C528.785 1194.18 503.586 1117.33 486.564 1100.97C479.466 1094.15 468.452 1101.83 459.109 1104.93Z" fill="white" stroke="white" stroke-width="4"/>
<path d="M914.573 1128.74C924.989 1060.08 959.009 855.359 986.669 677.479C989.362 660.157 1001.07 645.229 1018.35 642.269C1030.42 640.202 1041.94 639.393 1050.32 639.097C1058.96 638.792 1067.23 641.393 1069.09 649.833C1071.16 659.185 1072.8 672.472 1074.31 681.386C1075.61 689.12 1080.89 686.605 1086.44 681.06L1099.5 668C1124.53 639.398 1173.64 647.981 1204.95 657.491C1222.8 662.912 1233.82 679.865 1234.3 698.51C1241.15 961.927 1241.19 1062.71 1237.4 1102.01C1236.11 1115.35 1226.41 1125.23 1213.47 1128.72C1204.42 1131.16 1192.91 1133.83 1180.22 1135.72C1152.18 1139.89 1127.91 1147.01 1129.82 1118.72C1135.03 1041.48 1145.12 859.561 1136.69 795.667C1134.6 779.837 1129.38 767.991 1113.95 763.894C1108.35 762.408 1099.45 762.556 1085.26 766.16C1071.27 769.713 1060.71 780.802 1057.75 794.931C1042.53 867.716 1024.81 1054.98 1012.14 1117.15C1009.45 1130.3 998.405 1137 984.988 1137H955.116C931.783 1137 911.073 1151.81 914.573 1128.74Z" fill="white" stroke="white" stroke-width="4"/>
<path fill-rule="evenodd" clip-rule="evenodd" d="M621.155 1203.22C652.957 1183.82 781.486 1173.54 839.214 1170.2C856.738 1169.19 870.652 1179.45 875.492 1196.32C885.24 1230.3 890.716 1252.26 893.356 1266.18C896.691 1283.76 877.86 1290.88 860.306 1294.36C806.416 1305.04 730.611 1295.47 697.095 1290.87C684.672 1289.16 685.49 1298.1 686.562 1309.8C686.79 1312.29 687.03 1314.9 687.156 1317.56C687.604 1327.03 694.065 1334.2 703.537 1333.89C712.639 1333.6 725.389 1332.89 740.076 1332.07C788.221 1329.4 857.183 1325.57 886.686 1331.27C891.315 1332.17 895.857 1334.2 898.039 1338.38C903.164 1348.2 901.182 1364.84 895.557 1372.11C892.802 1375.66 888.015 1375.96 883.317 1376.25C881.938 1376.33 880.566 1376.41 879.256 1376.58C865.152 1378.37 852.566 1380.17 840.595 1381.89C790.148 1389.13 750.607 1394.81 654.297 1390.92C631.582 1390 612.557 1373.19 609.247 1350.69C600.125 1288.72 601.021 1253.59 613.144 1215.12C614.636 1210.38 616.915 1205.8 621.155 1203.22ZM778.804 1215.96C795.966 1215.54 814.21 1215.11 832.5 1214.5C838.594 1214.7 841.275 1227.69 841.746 1239.72C842.288 1253.6 830.057 1259.93 816.193 1260.7C804.017 1261.38 792.485 1262.03 781.661 1262.64C740.167 1264.99 709.102 1266.74 692.189 1267.07C682.328 1267.27 679.462 1259.73 681.083 1250C681.229 1249.12 681.372 1248.24 681.516 1247.35C683.643 1234.24 685.908 1220.26 698.971 1219.06C716.586 1217.45 745.68 1216.75 778.804 1215.96Z" fill="white"/>
<path d="M839.214 1170.2L839.099 1168.21L839.214 1170.2ZM621.155 1203.22L620.113 1201.51L621.155 1203.22ZM875.492 1196.32L873.57 1196.87L875.492 1196.32ZM893.356 1266.18L895.321 1265.81V1265.81L893.356 1266.18ZM860.306 1294.36L860.695 1296.32L860.306 1294.36ZM697.095 1290.87L696.823 1292.85L697.095 1290.87ZM686.562 1309.8L688.554 1309.62H688.554L686.562 1309.8ZM687.156 1317.56L689.154 1317.47L687.156 1317.56ZM703.537 1333.89L703.472 1331.89L703.537 1333.89ZM740.076 1332.07L739.965 1330.08L740.076 1332.07ZM886.686 1331.27L887.065 1329.31L886.686 1331.27ZM898.039 1338.38L896.266 1339.31L898.039 1338.38ZM895.557 1372.11L893.975 1370.88V1370.88L895.557 1372.11ZM883.317 1376.25L883.439 1378.24L883.317 1376.25ZM879.256 1376.58L879.005 1374.6H879.005L879.256 1376.58ZM840.595 1381.89L840.879 1383.87L840.595 1381.89ZM654.297 1390.92L654.378 1388.92L654.297 1390.92ZM609.247 1350.69L611.226 1350.4L609.247 1350.69ZM613.144 1215.12L611.236 1214.52L613.144 1215.12ZM832.5 1214.5L832.567 1212.5L832.5 1212.5L832.433 1212.5L832.5 1214.5ZM778.804 1215.96L778.853 1217.96L778.804 1215.96ZM841.746 1239.72L839.747 1239.8L841.746 1239.72ZM816.193 1260.7L816.304 1262.7L816.193 1260.7ZM781.661 1262.64L781.549 1260.64L781.661 1262.64ZM692.189 1267.07L692.15 1265.07L692.189 1267.07ZM681.083 1250L683.056 1250.33L681.083 1250ZM681.516 1247.35L683.49 1247.67V1247.67L681.516 1247.35ZM698.971 1219.06L698.789 1217.07L698.971 1219.06ZM839.099 1168.21C810.212 1169.88 763.599 1173.29 720.214 1178.71C698.524 1181.42 677.609 1184.63 660.105 1188.39C642.68 1192.14 628.382 1196.47 620.113 1201.51L622.196 1204.92C629.828 1200.27 643.522 1196.05 660.945 1192.3C678.289 1188.58 699.076 1185.38 720.71 1182.68C763.973 1177.27 810.489 1173.87 839.33 1172.2L839.099 1168.21ZM877.415 1195.77C872.326 1178.03 857.591 1167.14 839.099 1168.21L839.33 1172.2C855.885 1171.24 868.977 1180.87 873.57 1196.87L877.415 1195.77ZM895.321 1265.81C892.664 1251.79 887.166 1229.76 877.415 1195.77L873.57 1196.87C883.314 1230.84 888.769 1252.73 891.391 1266.55L895.321 1265.81ZM860.695 1296.32C869.528 1294.57 878.956 1291.86 885.789 1287.21C889.23 1284.87 892.097 1281.98 893.862 1278.39C895.64 1274.78 896.229 1270.59 895.321 1265.81L891.391 1266.55C892.151 1270.56 891.636 1273.85 890.273 1276.63C888.896 1279.43 886.584 1281.83 883.539 1283.9C877.402 1288.08 868.638 1290.67 859.917 1292.4L860.695 1296.32ZM696.823 1292.85C730.277 1297.44 806.42 1307.08 860.695 1296.32L859.917 1292.4C806.412 1303 730.945 1293.49 697.367 1288.88L696.823 1292.85ZM688.554 1309.62C688.284 1306.67 688.041 1304 688.009 1301.64C687.976 1299.26 688.165 1297.37 688.656 1295.96C689.123 1294.62 689.834 1293.78 690.911 1293.27C692.072 1292.72 693.908 1292.45 696.823 1292.85L697.367 1288.88C694.07 1288.43 691.35 1288.64 689.203 1289.65C686.973 1290.7 685.627 1292.5 684.879 1294.65C684.157 1296.72 683.974 1299.16 684.009 1301.69C684.044 1304.24 684.305 1307.08 684.571 1309.98L688.554 1309.62ZM689.154 1317.47C689.025 1314.76 688.781 1312.1 688.554 1309.62L684.571 1309.98C684.799 1312.48 685.034 1315.05 685.158 1317.66L689.154 1317.47ZM703.472 1331.89C695.289 1332.16 689.56 1326.05 689.154 1317.47L685.158 1317.66C685.649 1328.01 692.84 1336.24 703.602 1335.89L703.472 1331.89ZM739.965 1330.08C725.268 1330.89 712.545 1331.6 703.472 1331.89L703.602 1335.89C712.732 1335.59 725.509 1334.88 740.187 1334.07L739.965 1330.08ZM887.065 1329.31C872.075 1326.41 847.254 1325.96 820.329 1326.53C793.343 1327.11 764.031 1328.74 739.965 1330.08L740.187 1334.07C764.266 1332.73 793.508 1331.11 820.415 1330.53C847.383 1329.95 871.794 1330.43 886.306 1333.24L887.065 1329.31ZM899.812 1337.46C897.207 1332.46 891.907 1330.24 887.065 1329.31L886.306 1333.24C890.722 1334.09 894.508 1335.94 896.266 1339.31L899.812 1337.46ZM897.138 1373.33C900.273 1369.28 902.245 1362.88 902.821 1356.38C903.4 1349.86 902.611 1342.82 899.812 1337.46L896.266 1339.31C898.592 1343.76 899.375 1349.96 898.837 1356.03C898.298 1362.11 896.466 1367.67 893.975 1370.88L897.138 1373.33ZM883.439 1378.24C885.745 1378.1 888.319 1377.95 890.669 1377.34C893.067 1376.71 895.405 1375.57 897.138 1373.33L893.975 1370.88C892.955 1372.2 891.521 1372.98 889.662 1373.47C887.756 1373.96 885.587 1374.1 883.195 1374.25L883.439 1378.24ZM879.508 1378.56C880.742 1378.41 882.047 1378.33 883.439 1378.24L883.195 1374.25C881.828 1374.33 880.39 1374.42 879.005 1374.6L879.508 1378.56ZM840.879 1383.87C852.851 1382.15 865.422 1380.35 879.508 1378.56L879.005 1374.6C864.882 1376.39 852.281 1378.2 840.31 1379.91L840.879 1383.87ZM654.216 1392.92C750.682 1396.81 790.351 1391.13 840.879 1383.87L840.31 1379.91C789.945 1387.14 750.531 1392.8 654.378 1388.92L654.216 1392.92ZM607.268 1350.99C610.721 1374.45 630.559 1391.96 654.216 1392.92L654.378 1388.92C632.606 1388.04 614.393 1371.92 611.226 1350.4L607.268 1350.99ZM611.236 1214.52C598.985 1253.4 598.125 1288.87 607.268 1350.99L611.226 1350.4C602.124 1288.57 603.057 1253.78 615.051 1215.72L611.236 1214.52ZM620.113 1201.51C615.24 1204.48 612.77 1209.65 611.236 1214.52L615.051 1215.72C616.502 1211.12 618.591 1207.12 622.196 1204.92L620.113 1201.51ZM832.433 1212.5C814.154 1213.11 795.92 1213.54 778.756 1213.96L778.853 1217.96C796.013 1217.54 814.266 1217.1 832.566 1216.5L832.433 1212.5ZM843.744 1239.64C843.506 1233.54 842.706 1227.09 841.141 1222.08C840.361 1219.58 839.352 1217.31 838.028 1215.61C836.69 1213.89 834.881 1212.58 832.567 1212.5L832.432 1216.5C833.165 1216.52 833.977 1216.92 834.871 1218.06C835.778 1219.23 836.611 1220.99 837.323 1223.27C838.74 1227.81 839.515 1233.87 839.747 1239.8L843.744 1239.64ZM816.304 1262.7C823.463 1262.3 830.405 1260.46 835.543 1256.75C840.776 1252.96 844.043 1247.29 843.744 1239.64L839.747 1239.8C839.991 1246.03 837.414 1250.46 833.2 1253.5C828.893 1256.62 822.787 1258.33 816.082 1258.7L816.304 1262.7ZM781.774 1264.64C792.598 1264.03 804.129 1263.37 816.304 1262.7L816.082 1258.7C803.905 1259.38 792.372 1260.03 781.549 1260.64L781.774 1264.64ZM692.228 1269.07C709.188 1268.74 740.304 1266.98 781.774 1264.64L781.549 1260.64C740.031 1262.99 709.015 1264.75 692.15 1265.07L692.228 1269.07ZM679.11 1249.67C678.267 1254.73 678.517 1259.59 680.591 1263.24C682.767 1267.08 686.711 1269.18 692.228 1269.07L692.15 1265.07C687.806 1265.16 685.386 1263.59 684.069 1261.27C682.65 1258.77 682.278 1254.99 683.056 1250.33L679.11 1249.67ZM679.542 1247.03C679.398 1247.92 679.255 1248.8 679.11 1249.67L683.056 1250.33C683.203 1249.45 683.346 1248.56 683.49 1247.67L679.542 1247.03ZM698.789 1217.07C691.356 1217.75 687.004 1222.16 684.33 1227.89C681.724 1233.48 680.592 1240.55 679.542 1247.03L683.49 1247.67C684.566 1241.04 685.631 1234.56 687.955 1229.58C690.211 1224.75 693.524 1221.57 699.154 1221.06L698.789 1217.07ZM778.756 1213.96C745.669 1214.75 716.489 1215.45 698.789 1217.07L699.154 1221.06C716.684 1219.45 745.692 1218.75 778.853 1217.96L778.756 1213.96Z" fill="white"/>
<path fill-rule="evenodd" clip-rule="evenodd" d="M973.942 1208.11C1022.87 1170.14 1146.96 1145.67 1251.46 1174.96C1267.03 1179.32 1278.33 1192.45 1282.05 1208.18C1319.21 1365.5 1328.2 1454.74 1314.07 1578.49C1312.54 1591.89 1305.35 1604.05 1294.2 1611.66C1125.55 1726.73 947.467 1748.06 823.842 1715.99C813.483 1713.31 804.18 1706.98 799.83 1697.2C788.15 1670.95 789.38 1638.11 790.902 1597.48C792.269 1560.97 793.872 1518.17 786.56 1468.18C784.366 1453.18 788.812 1437.62 803.205 1432.87C839.115 1421.03 902 1421.93 902 1429.5C902.561 1539.61 904.04 1609.58 914.123 1633.1C917.012 1639.85 924.825 1641.21 932.135 1640.6C1064.16 1629.6 1151.27 1608.11 1220.17 1575.46C1232.92 1569.42 1242 1557.64 1243.97 1543.67C1247.82 1516.46 1249.48 1474.71 1221 1485C1136.1 1514.69 1087.09 1525.88 1022.86 1523.65C1005.84 1523.07 990.459 1512.87 984.676 1496.85C965.733 1444.38 961.171 1373.62 961.442 1237.31C961.464 1226.12 965.106 1214.96 973.942 1208.11ZM1087.58 1254.84L1088.33 1254.7C1141.98 1244.41 1211.51 1231.07 1221 1254C1240.24 1287.56 1249.9 1322.09 1256.17 1385.56C1257.46 1398.62 1252.01 1410.64 1239.17 1413.35C1223.85 1416.58 1199.38 1419.48 1164.25 1423.65C1142.72 1426.2 1117.19 1429.22 1087.32 1433.09C1065.54 1435.91 1047.95 1423.03 1047.28 1401.08C1046.39 1372.04 1046.62 1331.54 1047.96 1299.09C1048.88 1276.89 1065.76 1259.03 1087.58 1254.84Z" fill="white"/>
<path d="M1251.46 1174.96L1250.92 1176.89L1251.46 1174.96ZM973.942 1208.11L975.168 1209.69L973.942 1208.11ZM1282.05 1208.18L1283.99 1207.72L1282.05 1208.18ZM1314.07 1578.49L1312.09 1578.26L1314.07 1578.49ZM1294.2 1611.66L1293.08 1610.01L1294.2 1611.66ZM823.842 1715.99L824.344 1714.06H824.344L823.842 1715.99ZM799.83 1697.2L801.657 1696.39L799.83 1697.2ZM790.902 1597.48L792.9 1597.55L790.902 1597.48ZM786.56 1468.18L788.539 1467.89L786.56 1468.18ZM803.205 1432.87L803.831 1434.77H803.831L803.205 1432.87ZM902 1429.5H900L900 1429.51L902 1429.5ZM914.123 1633.1L915.961 1632.32L914.123 1633.1ZM932.135 1640.6L931.969 1638.61L932.135 1640.6ZM1220.17 1575.46L1219.31 1573.65L1220.17 1575.46ZM1243.97 1543.67L1241.99 1543.39L1243.97 1543.67ZM1221 1485L1221.66 1486.89L1221.67 1486.88L1221.68 1486.88L1221 1485ZM1022.86 1523.65L1022.93 1521.66L1022.86 1523.65ZM984.676 1496.85L986.557 1496.17L984.676 1496.85ZM961.442 1237.31L959.442 1237.3L961.442 1237.31ZM1088.33 1254.7L1088.7 1256.66L1088.33 1254.7ZM1087.58 1254.84L1087.96 1256.81V1256.81L1087.58 1254.84ZM1221 1254L1219.15 1254.76L1219.2 1254.88L1219.26 1254.99L1221 1254ZM1256.17 1385.56L1254.18 1385.76L1256.17 1385.56ZM1239.17 1413.35L1239.58 1415.31L1239.17 1413.35ZM1164.25 1423.65L1164.01 1421.66V1421.66L1164.25 1423.65ZM1087.32 1433.09L1087.58 1435.07L1087.32 1433.09ZM1047.28 1401.08L1045.28 1401.14L1047.28 1401.08ZM1047.96 1299.09L1045.96 1299.01L1047.96 1299.09ZM1252 1173.03C1199.43 1158.3 1142 1157.1 1091.58 1164.33C1041.21 1171.56 997.57 1187.25 972.716 1206.53L975.168 1209.69C999.245 1191.01 1042.11 1175.47 1092.15 1168.29C1142.13 1161.12 1198.99 1162.33 1250.92 1176.89L1252 1173.03ZM1283.99 1207.72C1280.13 1191.37 1268.35 1177.62 1252 1173.03L1250.92 1176.89C1265.7 1181.03 1276.53 1193.52 1280.1 1208.64L1283.99 1207.72ZM1316.06 1578.71C1330.22 1454.66 1321.19 1365.18 1283.99 1207.72L1280.1 1208.64C1317.23 1365.82 1326.18 1454.81 1312.09 1578.26L1316.06 1578.71ZM1295.33 1613.31C1306.97 1605.37 1314.47 1592.68 1316.06 1578.71L1312.09 1578.26C1310.62 1591.1 1303.73 1602.74 1293.08 1610.01L1295.33 1613.31ZM823.34 1717.93C947.576 1750.16 1126.25 1728.67 1295.33 1613.31L1293.08 1610.01C1124.85 1724.78 947.358 1745.97 824.344 1714.06L823.34 1717.93ZM798.003 1698.01C802.665 1708.49 812.564 1715.13 823.34 1717.93L824.344 1714.06C814.402 1711.48 805.695 1705.46 801.657 1696.39L798.003 1698.01ZM788.903 1597.4C787.387 1637.88 786.094 1671.24 798.003 1698.01L801.657 1696.39C790.207 1670.65 791.373 1638.35 792.9 1597.55L788.903 1597.4ZM784.581 1468.47C791.863 1518.26 790.27 1560.9 788.903 1597.4L792.9 1597.55C794.267 1561.05 795.88 1518.08 788.539 1467.89L784.581 1468.47ZM802.578 1430.97C786.785 1436.18 782.335 1453.12 784.581 1468.47L788.539 1467.89C786.398 1453.25 790.839 1439.05 803.831 1434.77L802.578 1430.97ZM904 1429.5C904 1428.26 903.341 1427.32 902.618 1426.67C901.906 1426.03 900.977 1425.54 899.98 1425.13C897.972 1424.32 895.192 1423.68 891.908 1423.19C885.304 1422.2 876.202 1421.75 866.038 1421.9C845.727 1422.21 820.803 1424.96 802.578 1430.97L803.831 1434.77C821.516 1428.94 845.989 1426.21 866.099 1425.9C876.145 1425.75 885.009 1426.2 891.318 1427.14C894.49 1427.62 896.904 1428.2 898.476 1428.84C899.268 1429.16 899.725 1429.45 899.952 1429.65C900.168 1429.84 900 1429.79 900 1429.5H904ZM915.961 1632.32C913.55 1626.69 911.595 1618.13 910.036 1606.58C908.481 1595.07 907.337 1580.74 906.488 1563.67C904.791 1529.52 904.28 1484.55 904 1429.49L900 1429.51C900.28 1484.56 900.791 1529.62 902.493 1563.87C903.345 1580.99 904.496 1595.45 906.072 1607.12C907.643 1618.75 909.654 1627.75 912.284 1633.89L915.961 1632.32ZM931.969 1638.61C928.464 1638.9 924.989 1638.7 922.121 1637.72C919.302 1636.75 917.136 1635.06 915.961 1632.32L912.284 1633.89C913.999 1637.89 917.183 1640.25 920.821 1641.5C924.409 1642.73 928.495 1642.92 932.301 1642.6L931.969 1638.61ZM1219.31 1573.65C1150.71 1606.17 1063.87 1627.62 931.969 1638.61L932.301 1642.6C1064.46 1631.58 1151.83 1610.06 1221.03 1577.27L1219.31 1573.65ZM1241.99 1543.39C1240.12 1556.66 1231.49 1567.88 1219.31 1573.65L1221.03 1577.27C1234.35 1570.95 1243.88 1558.62 1245.95 1543.95L1241.99 1543.39ZM1221.68 1486.88C1228.39 1484.46 1232.85 1485.24 1235.93 1487.59C1239.15 1490.05 1241.36 1494.58 1242.65 1500.69C1245.24 1512.86 1243.91 1529.8 1241.99 1543.39L1245.95 1543.95C1247.88 1530.33 1249.31 1512.78 1246.57 1499.85C1245.2 1493.41 1242.72 1487.73 1238.36 1484.41C1233.86 1480.98 1227.85 1480.4 1220.32 1483.12L1221.68 1486.88ZM1022.79 1525.65C1087.38 1527.89 1136.66 1516.61 1221.66 1486.89L1220.34 1483.11C1135.53 1512.77 1086.79 1523.87 1022.93 1521.66L1022.79 1525.65ZM982.795 1497.53C988.882 1514.39 1005.04 1525.04 1022.79 1525.65L1022.93 1521.66C1006.65 1521.09 992.036 1511.35 986.557 1496.17L982.795 1497.53ZM959.442 1237.3C959.171 1373.55 963.712 1444.67 982.795 1497.53L986.557 1496.17C967.754 1444.09 963.171 1373.69 963.442 1237.31L959.442 1237.3ZM972.716 1206.53C963.228 1213.89 959.465 1225.75 959.442 1237.3L963.442 1237.31C963.463 1226.5 966.983 1216.04 975.168 1209.69L972.716 1206.53ZM1087.95 1252.74L1087.2 1252.88L1087.96 1256.81L1088.7 1256.66L1087.95 1252.74ZM1222.85 1253.24C1220.09 1246.56 1213.11 1242.88 1204.22 1241.03C1195.26 1239.16 1183.78 1239.01 1171.08 1239.89C1145.66 1241.66 1114.74 1247.6 1087.95 1252.74L1088.7 1256.66C1115.56 1251.51 1146.23 1245.63 1171.36 1243.88C1183.94 1243.01 1194.98 1243.19 1203.4 1244.94C1211.9 1246.72 1217.17 1249.97 1219.15 1254.76L1222.85 1253.24ZM1258.16 1385.36C1251.88 1321.75 1242.17 1286.91 1222.74 1253.01L1219.26 1254.99C1238.31 1288.22 1247.92 1322.43 1254.18 1385.76L1258.16 1385.36ZM1239.58 1415.31C1246.59 1413.83 1251.63 1409.78 1254.71 1404.32C1257.76 1398.91 1258.84 1392.21 1258.16 1385.36L1254.18 1385.76C1254.8 1391.97 1253.79 1397.81 1251.23 1402.36C1248.69 1406.85 1244.59 1410.17 1238.75 1411.4L1239.58 1415.31ZM1164.49 1425.63C1199.57 1421.47 1224.16 1418.56 1239.58 1415.31L1238.75 1411.4C1223.55 1414.6 1199.2 1417.49 1164.01 1421.66L1164.49 1425.63ZM1087.58 1435.07C1117.44 1431.21 1142.96 1428.18 1164.49 1425.63L1164.01 1421.66C1142.49 1424.21 1116.95 1427.24 1087.06 1431.11L1087.58 1435.07ZM1045.28 1401.14C1045.64 1412.67 1050.45 1421.95 1058.16 1427.95C1065.84 1433.94 1076.24 1436.54 1087.58 1435.07L1087.06 1431.11C1076.62 1432.46 1067.34 1430.03 1060.61 1424.8C1053.91 1419.58 1049.6 1411.44 1049.28 1401.02L1045.28 1401.14ZM1045.96 1299.01C1044.62 1331.51 1044.39 1372.05 1045.28 1401.14L1049.28 1401.02C1048.39 1372.03 1048.62 1331.58 1049.96 1299.18L1045.96 1299.01ZM1087.2 1252.88C1064.56 1257.22 1046.92 1275.79 1045.96 1299.01L1049.96 1299.18C1050.83 1277.99 1066.95 1260.84 1087.96 1256.81L1087.2 1252.88Z" fill="white"/>
<path fill-rule="evenodd" clip-rule="evenodd" d="M1604.97 961.342C1611.78 962.034 1618.75 962.741 1625.89 963.451C1645.7 965.419 1663.54 977.625 1668.87 996.801C1707.76 1136.82 1620.32 1332.24 1571 1402.5C1493.18 1504.59 1445.43 1517.64 1406.93 1513.91C1400.01 1513.23 1392.96 1511.36 1390.14 1504.99C1365.83 1450.14 1321.3 1111.8 1336.36 1003.07C1338.5 987.615 1350.4 976.434 1365.35 971.989C1453.05 945.916 1515.73 952.28 1604.97 961.342ZM1437 1066.5C1430.5 1048 1551.5 1038.5 1559.5 1066.5C1591.59 1163.59 1570.48 1270.22 1520.5 1326C1497.61 1352.25 1476.11 1359.12 1460.82 1357.38C1448.59 1355.99 1442.97 1343.19 1442.11 1330.9C1432.41 1192.19 1431.37 1052.43 1437 1066.5Z" fill="white"/>
<path d="M1625.89 963.451L1625.69 965.441L1625.89 963.451ZM1604.97 961.342L1604.77 963.332L1604.97 961.342ZM1668.87 996.801L1670.79 996.265L1668.87 996.801ZM1571 1402.5L1572.59 1403.71L1572.61 1403.68L1572.64 1403.65L1571 1402.5ZM1406.93 1513.91L1406.74 1515.9L1406.93 1513.91ZM1390.14 1504.99L1388.31 1505.8L1390.14 1504.99ZM1336.36 1003.07L1334.38 1002.79L1336.36 1003.07ZM1365.35 971.989L1365.92 973.906L1365.35 971.989ZM1559.5 1066.5L1557.58 1067.05L1557.59 1067.09L1557.6 1067.13L1559.5 1066.5ZM1437 1066.5L1435.14 1067.24L1438.89 1065.84L1437 1066.5ZM1520.5 1326L1519.01 1324.67L1519 1324.68L1518.99 1324.69L1520.5 1326ZM1460.82 1357.38L1460.59 1359.37L1460.82 1357.38ZM1442.11 1330.9L1444.1 1330.77L1442.11 1330.9ZM1626.09 961.461C1618.95 960.751 1611.98 960.044 1605.17 959.352L1604.77 963.332C1611.58 964.023 1618.55 964.731 1625.69 965.441L1626.09 961.461ZM1670.79 996.265C1665.2 976.126 1646.53 963.491 1626.09 961.461L1625.69 965.441C1644.87 967.346 1661.88 979.124 1666.94 997.336L1670.79 996.265ZM1572.64 1403.65C1597.43 1368.33 1631.71 1301.71 1654.93 1226.4C1678.13 1151.12 1690.39 1066.82 1670.79 996.265L1666.94 997.336C1686.23 1066.8 1674.22 1150.22 1651.1 1225.22C1627.99 1300.18 1593.89 1366.41 1569.36 1401.35L1572.64 1403.65ZM1406.74 1515.9C1426.37 1517.8 1448.36 1515.4 1475.23 1499.61C1502.02 1483.87 1533.6 1454.86 1572.59 1403.71L1569.41 1401.29C1530.57 1452.23 1499.37 1480.79 1473.21 1496.16C1447.12 1511.49 1425.99 1513.75 1407.12 1511.92L1406.74 1515.9ZM1388.31 1505.8C1391.63 1513.29 1399.81 1515.22 1406.74 1515.9L1407.12 1511.92C1400.2 1511.24 1394.29 1509.42 1391.96 1504.18L1388.31 1505.8ZM1334.38 1002.79C1326.81 1057.45 1334.22 1169.47 1346.5 1274.47C1352.65 1327.02 1360.03 1377.89 1367.39 1419.07C1374.74 1460.15 1382.12 1491.83 1388.31 1505.8L1391.96 1504.18C1386 1490.73 1378.7 1459.55 1371.33 1418.37C1363.98 1377.28 1356.61 1326.49 1350.47 1274C1338.18 1168.94 1330.85 1057.42 1338.34 1003.34L1334.38 1002.79ZM1364.78 970.071C1349.26 974.684 1336.65 986.387 1334.38 1002.79L1338.34 1003.34C1340.35 988.844 1351.53 978.183 1365.92 973.906L1364.78 970.071ZM1605.17 959.352C1515.93 950.29 1452.9 943.875 1364.78 970.071L1365.92 973.906C1453.21 947.957 1515.53 954.27 1604.77 963.332L1605.17 959.352ZM1561.42 1065.95C1560.23 1061.77 1556.98 1058.5 1552.69 1055.98C1548.38 1053.45 1542.8 1051.54 1536.51 1050.13C1523.91 1047.33 1508.05 1046.47 1492.73 1047.06C1477.42 1047.66 1462.48 1049.72 1451.72 1052.84C1446.37 1054.39 1441.87 1056.24 1438.89 1058.43C1437.39 1059.52 1436.15 1060.79 1435.42 1062.26C1434.67 1063.8 1434.52 1065.48 1435.11 1067.16L1438.89 1065.84C1438.67 1065.21 1438.71 1064.65 1439.01 1064.03C1439.35 1063.34 1440.04 1062.54 1441.25 1061.65C1443.67 1059.89 1447.63 1058.18 1452.83 1056.68C1463.18 1053.68 1477.77 1051.65 1492.89 1051.06C1508.01 1050.47 1523.49 1051.33 1535.63 1054.04C1541.71 1055.39 1546.85 1057.19 1550.66 1059.43C1554.48 1061.67 1556.77 1064.23 1557.58 1067.05L1561.42 1065.95ZM1521.99 1327.33C1572.53 1270.93 1593.67 1163.52 1561.4 1065.87L1557.6 1067.13C1589.51 1163.67 1568.43 1269.52 1519.01 1324.67L1521.99 1327.33ZM1460.59 1359.37C1476.73 1361.2 1498.84 1353.89 1522.01 1327.31L1518.99 1324.69C1496.39 1350.61 1475.48 1357.04 1461.04 1355.4L1460.59 1359.37ZM1440.11 1331.04C1440.56 1337.41 1442.24 1344.02 1445.5 1349.28C1448.78 1354.59 1453.73 1358.59 1460.59 1359.37L1461.04 1355.4C1455.67 1354.79 1451.69 1351.69 1448.9 1347.18C1446.08 1342.62 1444.52 1336.68 1444.1 1330.77L1440.11 1331.04ZM1438.86 1065.76C1438.67 1065.29 1438.36 1064.61 1437.82 1064.13C1437.51 1063.86 1436.97 1063.52 1436.25 1063.52C1435.51 1063.52 1434.96 1063.87 1434.64 1064.18C1434.1 1064.69 1433.84 1065.41 1433.69 1065.85C1433.52 1066.4 1433.37 1067.05 1433.24 1067.78C1432.72 1070.68 1432.33 1075.65 1432.06 1082.29C1431.52 1095.64 1431.42 1116.17 1431.81 1141.44C1432.58 1191.99 1435.26 1261.65 1440.11 1331.04L1444.1 1330.77C1439.26 1261.44 1436.58 1191.86 1435.81 1141.38C1435.42 1116.13 1435.52 1095.69 1436.06 1082.45C1436.33 1075.8 1436.71 1071.08 1437.17 1068.48C1437.29 1067.84 1437.4 1067.39 1437.5 1067.09C1437.62 1066.7 1437.64 1066.85 1437.4 1067.08C1437.23 1067.24 1436.84 1067.52 1436.26 1067.52C1435.69 1067.52 1435.31 1067.25 1435.17 1067.13C1434.95 1066.93 1434.98 1066.83 1435.14 1067.24L1438.86 1065.76Z" fill="white"/>
<path d="M1306.25 581.093C1305.9 578.737 1305.6 576.764 1305.31 575.133C1304.49 570.344 1300.54 568.309 1295.74 567.557C1287.99 566.343 1279.31 565.319 1269.43 573.232C1268.81 573.729 1266.44 577.328 1266.02 578.003C1261.04 586.031 1274.05 671.888 1275.24 681.258C1285.22 759.492 1291.86 870.16 1294.79 920.358C1295.68 935.63 1293.82 950.339 1309.12 950.087C1316.37 949.968 1325.87 949.437 1338.05 948.291C1355.95 946.605 1371.61 934.704 1374.23 916.911C1381.83 865.417 1370.53 785.53 1356.66 688.125C1355.62 680.846 1356.04 678.444 1355.03 671.16C1351.98 649.2 1375.18 603.722 1391.39 618.84C1411.67 637.743 1432.08 660.435 1442 676.5C1466.95 722.443 1486.59 719.69 1499.63 703.946C1503.41 699.383 1524.3 643.879 1524.79 637.974C1524.85 637.291 1525.19 635.162 1525.53 634.566C1527.07 631.848 1528.4 629.595 1529.57 627.73C1538.15 614.014 1559.57 623.704 1565.21 638.866C1593.05 713.763 1594.86 931.769 1595 931.5C1587.8 941.469 1643.87 934.783 1687.35 927.108C1698.17 925.197 1712.45 928.432 1718.38 919.177C1748.88 871.567 1709.16 562.391 1634.86 496.534C1622.17 485.285 1603.26 476.803 1586.36 475.389C1564.05 473.523 1531.95 477.265 1511.33 483.891C1496.95 488.512 1479.75 494.998 1470.7 507.093C1465.06 514.634 1464.79 528.709 1464.97 563.915C1464.99 566.899 1465.35 567.6 1464.1 570.309C1461.45 576.031 1456.93 585.378 1451.14 582.879C1442.27 579.049 1433.52 565.382 1425.57 551.771C1415.76 534.988 1388.91 521.499 1370.03 526.144C1366.51 527.009 1353.46 530.604 1350.56 532.773C1332.71 546.125 1324.49 554.667 1323.41 562.531C1322.54 568.857 1322.43 575.947 1317.95 580.5C1309.88 590.886 1307.42 586.475 1306.72 583.888C1306.47 582.977 1306.39 582.027 1306.25 581.093Z" fill="white" stroke="white" stroke-width="4"/>
<path fill-rule="evenodd" clip-rule="evenodd" d="M1091.52 164.369C1088.81 179.335 1085.54 197.65 1081.79 218.728C1081.28 221.603 1080.74 224.34 1080.22 226.92C1076.72 244.533 1074.67 254.854 1094.44 252.243C1134.3 246.978 1206.95 239.796 1257.04 241.517C1273.1 242.069 1287.08 251.935 1291.72 267.319C1298.09 288.467 1302.54 314.26 1301.2 327.757C1300.45 335.337 1292.53 335.038 1285.49 332.133C1239.65 313.224 1209.5 332.78 1153.98 374.372C1145.23 380.922 1138.85 390.217 1135.97 400.754C1115.59 475.205 1108.77 520.461 1112.51 568.763C1114.29 591.651 1133.57 608.672 1156.46 610.341L1179.26 612.003C1199.89 613.508 1219.31 602.152 1228.13 583.438L1244.52 548.626C1250.56 535.814 1261.75 526.167 1275.28 521.992C1277.71 521.242 1280.1 520.501 1282.47 519.769C1341.67 501.473 1383.26 488.619 1457.68 485.126C1468.89 484.6 1480.44 481.011 1486.11 471.329C1517.86 417.102 1465.69 288.869 1356.3 184.902C1352.17 180.976 1347.33 177.845 1342.07 175.635C1276.83 148.179 1229.7 134.721 1156.67 131.295C1126.44 129.876 1096.92 134.59 1091.52 164.369ZM1245.16 395.046C1313.39 376.314 1360.77 364.478 1395.47 369.773C1411.49 372.217 1421.47 387.026 1423.34 403.122C1423.98 408.621 1424.48 413.576 1424.85 418.047C1426.71 440.745 1406.02 447.206 1383.89 441.816C1315.22 425.088 1252.1 460.067 1220.38 488.259C1215.36 492.722 1211.15 497.292 1207.8 500.93C1199.85 509.56 1196.74 512.942 1199.09 497.183C1201.23 482.827 1204.52 462.517 1209.18 434.836C1212.4 415.709 1226.46 400.181 1245.16 395.046Z" fill="white"/>
<path d="M1081.79 218.728L1083.76 219.078H1083.76L1081.79 218.728ZM1091.52 164.369L1093.49 164.726L1091.52 164.369ZM1080.22 226.92L1082.18 227.31L1080.22 226.92ZM1094.44 252.243L1094.7 254.226L1094.44 252.243ZM1257.04 241.517L1256.97 243.516L1257.04 241.517ZM1291.72 267.319L1293.63 266.742L1291.72 267.319ZM1301.2 327.757L1303.19 327.954L1301.2 327.757ZM1285.49 332.133L1286.25 330.284L1285.49 332.133ZM1153.98 374.372L1152.78 372.772L1153.98 374.372ZM1135.97 400.754L1134.04 400.226L1135.97 400.754ZM1112.51 568.763L1110.52 568.918L1112.51 568.763ZM1156.46 610.341L1156.32 612.336L1156.46 610.341ZM1179.26 612.003L1179.4 610.009L1179.26 612.003ZM1228.13 583.438L1226.32 582.586L1228.13 583.438ZM1244.52 548.626L1246.33 549.478L1244.52 548.626ZM1275.28 521.992L1274.69 520.081L1275.28 521.992ZM1282.47 519.769L1281.88 517.858L1282.47 519.769ZM1457.68 485.126L1457.59 483.128L1457.68 485.126ZM1486.11 471.329L1484.38 470.319L1486.11 471.329ZM1356.3 184.902L1357.68 183.452L1356.3 184.902ZM1342.07 175.635L1342.85 173.792L1342.07 175.635ZM1156.67 131.295L1156.77 129.297L1156.67 131.295ZM1395.47 369.773L1395.17 371.75L1395.47 369.773ZM1245.16 395.046L1244.63 393.117L1245.16 395.046ZM1423.34 403.122L1421.35 403.353L1423.34 403.122ZM1424.85 418.047L1426.84 417.884L1424.85 418.047ZM1383.89 441.816L1383.42 443.759L1383.89 441.816ZM1220.38 488.259L1221.71 489.754L1220.38 488.259ZM1207.8 500.93L1206.33 499.576L1207.8 500.93ZM1199.09 497.183L1197.11 496.888L1199.09 497.183ZM1209.18 434.836L1207.21 434.504L1209.18 434.836ZM1083.76 219.078C1087.51 198 1090.77 179.689 1093.49 164.726L1089.55 164.012C1086.84 178.982 1083.57 197.3 1079.82 218.378L1083.76 219.078ZM1082.18 227.31C1082.7 224.732 1083.24 221.976 1083.76 219.078L1079.82 218.378C1079.31 221.23 1078.77 223.948 1078.26 226.53L1082.18 227.31ZM1094.17 250.261C1089.34 250.899 1086.13 250.699 1084.04 249.975C1082.09 249.301 1081.06 248.165 1080.5 246.52C1079.88 244.722 1079.81 242.225 1080.18 238.894C1080.54 235.594 1081.3 231.74 1082.18 227.31L1078.26 226.53C1077.39 230.907 1076.59 234.948 1076.2 238.455C1075.82 241.932 1075.81 245.154 1076.71 247.812C1077.67 250.622 1079.62 252.678 1082.73 253.755C1085.7 254.782 1089.65 254.893 1094.7 254.226L1094.17 250.261ZM1257.11 239.518C1206.85 237.791 1134.06 244.992 1094.17 250.261L1094.7 254.226C1134.53 248.964 1207.05 241.8 1256.97 243.516L1257.11 239.518ZM1293.63 266.742C1288.73 250.464 1273.94 240.097 1257.11 239.518L1256.97 243.516C1272.25 244.041 1285.44 253.406 1289.8 267.896L1293.63 266.742ZM1303.19 327.954C1303.89 320.943 1303.07 310.915 1301.32 300.088C1299.57 289.221 1296.84 277.4 1293.63 266.742L1289.8 267.896C1292.96 278.386 1295.65 290.035 1297.38 300.726C1299.11 311.457 1299.85 321.074 1299.21 327.559L1303.19 327.954ZM1284.73 333.982C1288.4 335.495 1292.55 336.451 1296.04 335.848C1297.83 335.539 1299.54 334.805 1300.86 333.436C1302.19 332.058 1302.97 330.204 1303.19 327.954L1299.21 327.559C1299.06 329.099 1298.57 330.051 1297.98 330.658C1297.39 331.274 1296.53 331.705 1295.36 331.906C1292.95 332.323 1289.63 331.676 1286.25 330.284L1284.73 333.982ZM1155.17 375.973C1182.99 355.14 1204.18 340.039 1224.08 332.433C1243.8 324.895 1262.27 324.717 1284.73 333.982L1286.25 330.284C1262.87 320.64 1243.35 320.786 1222.65 328.697C1202.13 336.539 1180.49 352.013 1152.78 372.772L1155.17 375.973ZM1137.9 401.282C1140.66 391.18 1146.78 382.26 1155.17 375.973L1152.78 372.772C1143.68 379.585 1137.04 389.255 1134.04 400.226L1137.9 401.282ZM1114.51 568.609C1110.79 520.644 1117.54 475.647 1137.9 401.282L1134.04 400.226C1113.63 474.763 1106.75 520.279 1110.52 568.918L1114.51 568.609ZM1156.61 608.347C1134.57 606.74 1116.2 590.388 1114.51 568.609L1110.52 568.918C1112.38 592.914 1132.56 610.604 1156.32 612.336L1156.61 608.347ZM1179.4 610.009L1156.61 608.347L1156.32 612.336L1179.11 613.998L1179.4 610.009ZM1226.32 582.586C1217.86 600.552 1199.21 611.453 1179.4 610.009L1179.11 613.998C1200.57 615.562 1220.77 603.753 1229.94 584.29L1226.32 582.586ZM1242.71 547.774L1226.32 582.586L1229.94 584.29L1246.33 549.478L1242.71 547.774ZM1274.69 520.081C1260.62 524.42 1248.99 534.448 1242.71 547.774L1246.33 549.478C1252.12 537.18 1262.87 527.914 1275.87 523.903L1274.69 520.081ZM1281.88 517.858C1279.51 518.59 1277.12 519.331 1274.69 520.081L1275.87 523.903C1278.3 523.153 1280.7 522.412 1283.06 521.68L1281.88 517.858ZM1457.59 483.128C1382.9 486.634 1341.12 499.551 1281.88 517.858L1283.06 521.68C1342.23 503.394 1383.62 490.605 1457.78 487.124L1457.59 483.128ZM1484.38 470.319C1479.23 479.111 1468.58 482.613 1457.59 483.128L1457.78 487.124C1469.21 486.588 1481.64 482.912 1487.83 472.34L1484.38 470.319ZM1354.92 186.351C1409.45 238.174 1449.67 296.01 1472.3 347.572C1483.61 373.354 1490.5 397.509 1492.61 418.518C1494.72 439.548 1492.03 457.257 1484.38 470.319L1487.83 472.34C1496.06 458.288 1498.75 439.632 1496.59 418.118C1494.43 396.584 1487.39 372.015 1475.96 345.964C1453.1 293.861 1412.54 235.597 1357.68 183.452L1354.92 186.351ZM1341.3 177.479C1346.33 179.598 1350.97 182.598 1354.92 186.351L1357.68 183.452C1353.37 179.355 1348.32 176.093 1342.85 173.792L1341.3 177.479ZM1156.58 133.292C1229.32 136.705 1276.22 150.09 1341.3 177.479L1342.85 173.792C1277.45 146.268 1230.08 132.736 1156.77 129.297L1156.58 133.292ZM1093.49 164.726C1096.05 150.601 1104.25 142.493 1115.53 137.99C1126.95 133.43 1141.54 132.587 1156.58 133.292L1156.77 129.297C1141.58 128.584 1126.29 129.388 1114.04 134.275C1101.66 139.22 1092.39 148.358 1089.55 164.012L1093.49 164.726ZM1395.77 367.796C1378.1 365.098 1357.32 366.78 1332.52 371.434C1307.72 376.09 1278.74 383.753 1244.63 393.117L1245.69 396.974C1279.82 387.606 1308.64 379.986 1333.26 375.365C1357.89 370.742 1378.15 369.153 1395.17 371.75L1395.77 367.796ZM1425.33 402.891C1423.4 386.26 1413 370.424 1395.77 367.796L1395.17 371.75C1409.99 374.01 1419.55 387.792 1421.35 403.353L1425.33 402.891ZM1426.84 417.884C1426.47 413.385 1425.97 408.406 1425.33 402.891L1421.35 403.353C1421.99 408.836 1422.49 413.767 1422.86 418.21L1426.84 417.884ZM1383.42 443.759C1394.73 446.515 1405.96 446.322 1414.24 442.26C1418.42 440.213 1421.85 437.174 1424.1 433.052C1426.34 428.934 1427.33 423.871 1426.84 417.884L1422.86 418.21C1423.29 423.572 1422.39 427.828 1420.59 431.137C1418.79 434.442 1416.01 436.937 1412.48 438.669C1405.35 442.164 1395.18 442.507 1384.36 439.873L1383.42 443.759ZM1221.71 489.754C1253.18 461.776 1315.65 427.252 1383.42 443.759L1384.36 439.873C1314.79 422.925 1251.01 458.357 1219.05 486.765L1221.71 489.754ZM1209.27 502.285C1212.62 498.643 1216.77 494.142 1221.71 489.754L1219.05 486.765C1213.95 491.302 1209.67 495.942 1206.33 499.576L1209.27 502.285ZM1197.11 496.888C1196.52 500.835 1196.25 503.749 1196.34 505.728C1196.39 506.692 1196.53 507.662 1196.92 508.456C1197.13 508.877 1197.44 509.319 1197.92 509.66C1198.41 510.015 1198.97 510.185 1199.52 510.202C1200.52 510.232 1201.4 509.77 1202.02 509.371C1202.69 508.934 1203.4 508.335 1204.12 507.662C1205.56 506.315 1207.3 504.42 1209.27 502.285L1206.33 499.576C1204.32 501.755 1202.69 503.52 1201.39 504.741C1200.74 505.352 1200.23 505.765 1199.84 506.013C1199.4 506.299 1199.38 506.196 1199.64 506.204C1199.83 506.209 1200.06 506.272 1200.26 506.418C1200.44 506.551 1200.51 506.682 1200.51 506.683C1200.51 506.685 1200.5 506.665 1200.48 506.614C1200.47 506.564 1200.45 506.491 1200.43 506.391C1200.39 506.188 1200.36 505.908 1200.34 505.534C1200.26 503.984 1200.48 501.411 1201.07 497.478L1197.11 496.888ZM1207.21 434.504C1202.55 462.188 1199.25 482.513 1197.11 496.888L1201.07 497.478C1203.2 483.141 1206.49 462.846 1211.15 435.168L1207.21 434.504ZM1244.63 393.117C1225.18 398.458 1210.56 414.608 1207.21 434.504L1211.15 435.168C1214.24 416.811 1227.74 401.904 1245.69 396.974L1244.63 393.117Z" fill="white"/>
<path fill-rule="evenodd" clip-rule="evenodd" d="M314.369 255.624C299.728 218.124 724.503 -15.4903 829.37 31.1234C934.236 77.7372 942.87 261.624 829.37 331.623C720.705 398.641 655.121 372.623 630.424 362.826C629.325 362.39 628.307 361.986 627.369 361.624C616.145 357.287 606.318 322.59 596.497 287.915C587.069 254.627 577.647 221.36 567 214.993C545.579 202.182 437.222 235.505 389.573 312.548C388.176 314.806 387.528 317.486 386.256 319.817C376.944 336.883 328.172 290.976 314.369 255.624ZM678.93 191.088C687.861 124.581 814.989 40.5482 853.5 95.5C906.305 170.847 848.5 253.5 762 295.128C675.501 336.756 671.891 243.5 678.93 191.088Z" fill="white"/>
<path d="M829.37 31.1234L830.182 29.2959L829.37 31.1234ZM314.369 255.624L312.506 256.351H312.506L314.369 255.624ZM829.37 331.623L828.32 329.921L829.37 331.623ZM630.424 362.826L631.161 360.967L630.424 362.826ZM627.369 361.624L626.649 363.489H626.649L627.369 361.624ZM596.497 287.915L598.421 287.37L596.497 287.915ZM567 214.993L568.027 213.276L567 214.993ZM853.5 95.5L855.138 94.3522L853.5 95.5ZM678.93 191.088L680.912 191.354L678.93 191.088ZM762 295.128L761.133 293.326L762 295.128ZM389.573 312.548L391.274 313.6L389.573 312.548ZM386.256 319.817L388.012 320.775L386.256 319.817ZM830.182 29.2959C816.611 23.2635 798.098 21.8452 776.348 23.8571C754.552 25.8732 729.279 31.357 702.039 39.3438C647.553 55.3185 584.972 81.3724 526.178 110.033C467.38 138.696 412.295 170.001 372.8 196.51C353.063 209.757 337.155 221.849 326.617 231.848C321.357 236.839 317.353 241.385 314.889 245.356C312.492 249.219 311.226 253.07 312.506 256.351L316.233 254.896C315.683 253.49 316.019 251.121 318.288 247.465C320.489 243.917 324.212 239.644 329.37 234.75C339.669 224.977 355.364 213.03 375.029 199.831C414.338 173.447 469.256 142.231 527.93 113.629C586.608 85.0252 648.968 59.0719 703.164 43.1822C730.264 35.2367 755.267 29.8241 776.716 27.8401C798.21 25.8519 815.911 27.3299 828.557 32.951L830.182 29.2959ZM830.419 333.326C887.891 297.881 914.346 233.67 913.257 172.568C912.168 111.509 883.541 53.0141 830.182 29.2959L828.557 32.951C880.065 55.8466 908.187 112.602 909.257 172.639C910.327 232.634 884.349 295.366 828.32 329.921L830.419 333.326ZM629.686 364.685C642.104 369.611 664.976 378.686 698.448 378.03C731.918 377.374 775.825 366.996 830.419 333.326L828.32 329.921C774.249 363.268 731.032 373.39 698.37 374.031C665.71 374.671 643.44 365.838 631.161 360.967L629.686 364.685ZM626.649 363.489C627.576 363.848 628.585 364.248 629.686 364.685L631.161 360.967C630.064 360.532 629.038 360.124 628.09 359.758L626.649 363.489ZM594.573 288.46C599.476 305.771 604.412 323.204 609.535 336.849C612.095 343.67 614.733 349.628 617.478 354.185C620.172 358.658 623.183 362.151 626.649 363.489L628.09 359.758C625.943 358.929 623.517 356.458 620.905 352.121C618.344 347.87 615.806 342.173 613.279 335.443C608.227 321.987 603.339 304.734 598.421 287.37L594.573 288.46ZM565.974 216.709C568.165 218.02 570.539 220.901 573.028 225.366C575.483 229.769 577.911 235.453 580.328 242.047C585.161 255.235 589.852 271.793 594.573 288.46L598.421 287.37C593.714 270.749 588.98 254.03 584.084 240.671C581.635 233.991 579.123 228.084 576.522 223.418C573.955 218.814 571.159 215.149 568.027 213.276L565.974 216.709ZM391.274 313.6C414.826 275.519 453.458 248.15 488.955 231.894C506.691 223.771 523.573 218.457 537.298 215.965C544.163 214.719 550.192 214.187 555.116 214.346C560.09 214.506 563.725 215.365 565.974 216.709L568.027 213.276C564.92 211.419 560.483 210.516 555.245 210.348C549.957 210.178 543.634 210.749 536.584 212.029C522.478 214.59 505.276 220.02 487.289 228.257C451.34 244.72 411.969 272.534 387.872 311.496L391.274 313.6ZM312.506 256.351C319.552 274.396 335.415 294.954 350.649 308.854C358.259 315.798 365.867 321.226 372.289 323.813C375.493 325.104 378.592 325.766 381.332 325.39C384.192 324.998 386.534 323.484 388.012 320.775L384.501 318.859C383.651 320.417 382.432 321.202 380.788 321.427C379.025 321.669 376.678 321.268 373.784 320.103C368.011 317.777 360.817 312.718 353.345 305.9C338.414 292.275 322.99 272.204 316.233 254.896L312.506 256.351ZM855.138 94.3522C844.993 79.8758 829.042 74.6832 811.097 75.9049C793.204 77.1232 773.116 84.7065 754.099 96.0285C735.062 107.363 716.956 122.527 703.028 139.079C689.124 155.604 679.251 173.672 676.948 190.821L680.912 191.354C683.075 175.25 692.441 157.874 706.089 141.655C719.713 125.463 737.47 110.584 756.145 99.4655C774.841 88.3349 794.314 81.0568 811.368 79.8957C828.37 78.7381 842.752 83.6483 851.862 96.6478L855.138 94.3522ZM762.868 296.93C806.385 275.987 842.841 244.658 861.758 208.894C880.73 173.024 882.02 132.71 855.138 94.3522L851.862 96.6478C877.785 133.637 876.576 172.323 858.222 207.024C839.812 241.83 804.116 272.64 761.133 293.326L762.868 296.93ZM676.948 190.821C673.42 217.087 672.487 253.979 683.557 279.177C689.127 291.854 697.838 301.792 710.965 305.72C724.03 309.629 741.018 307.445 762.868 296.93L761.133 293.326C739.733 303.624 723.833 305.395 712.112 301.888C700.455 298.4 692.485 289.554 687.219 277.568C676.62 253.442 677.401 217.5 680.912 191.354L676.948 190.821ZM387.872 311.496C387.071 312.791 386.504 314.176 386.01 315.415C385.496 316.704 385.065 317.824 384.501 318.859L388.012 320.775C388.719 319.479 389.248 318.094 389.726 316.896C390.223 315.648 390.678 314.563 391.274 313.6L387.872 311.496Z" fill="white"/>
</svg>
