<svg width="37" height="46" viewBox="0 0 37 46" fill="none" xmlns="http://www.w3.org/2000/svg">
<path d="M10.5655 19.693V10.7341L6.06381 15.3346C6.06381 15.3346 4.08303 17.3927 2.76254 18.7244C1.68216 19.693 1.68216 21.1457 1.68216 21.1457V28.5307L10.5655 19.693Z" fill="#161513" stroke="#161513"/>
<path d="M34.9347 1.89662L1.8022 34.8264L14.0468 34.8264L21.8497 42.6956C21.8497 42.6956 22.5111 43.3095 23.0502 43.6641C23.7864 44.1484 24.7308 44.5116 24.7308 44.5116L34.8146 44.5116C30.9522 40.649 20.501 30.1976 19.5686 29.2573C23.2466 25.554 32.1735 16.6293 33.4938 15.3002C35.0547 13.64 34.9347 11.945 34.9347 11.945L34.9347 1.89662Z" fill="#161513" stroke="#161513"/>
</svg>
