<svg width="37" height="46" viewBox="0 0 37 46" fill="none" xmlns="http://www.w3.org/2000/svg">
<path d="M10.5655 19.7965V10.8376L6.06381 15.4381C6.06381 15.4381 4.08303 17.4962 2.76254 18.828C1.68216 19.7965 1.68216 21.2493 1.68216 21.2493V28.6342L10.5655 19.7965Z" fill="white" stroke="white"/>
<path d="M34.9347 2.00013L1.8022 34.9299L14.0468 34.9299L21.8497 42.7991C21.8497 42.7991 22.5111 43.413 23.0502 43.7676C23.7864 44.2519 24.7308 44.6151 24.7308 44.6151L34.8146 44.6151C30.9522 40.7525 20.501 30.3011 19.5686 29.3608C23.2466 25.6575 32.1735 16.7329 33.4938 15.4037C35.0547 13.7435 34.9347 12.0486 34.9347 12.0486L34.9347 2.00013Z" fill="white" stroke="white"/>
</svg>
