<svg width="66" height="48" viewBox="0 0 66 48" fill="none" xmlns="http://www.w3.org/2000/svg">
<path d="M17.8094 48C25.4094 48 30.9094 44.3 33.4094 38.2C36.1094 44.3 42.0094 48 49.0094 48C59.2094 48 65.8094 41 65.8094 31.4C65.8094 22.8 59.7094 15.8 51.0094 15.8C46.7094 15.8 42.5094 17.2 41.4094 18.6C41.4094 16.7 42.7094 14.3 45.2094 11.4C50.1094 5.7 60.5094 2.79999 65.6094 2.79999L63.6094 -5.00679e-06C48.2094 -5.00679e-06 35.0094 9.1 32.0094 22.4C29.2094 18 25.1094 15.8 19.8094 15.8C15.5094 15.8 11.3094 17.2 10.2094 18.6C10.2094 16.7 11.5094 14.3 14.0094 11.4C18.9094 5.7 29.3094 2.79999 34.4094 2.79999L32.4094 -5.00679e-06C26.8094 -5.00679e-06 21.3094 1.3 16.2094 3.79999C5.90938 8.9 0.209375 17.7 0.209375 28C0.209375 40.9 7.80938 48 17.8094 48Z" fill="white"/>
</svg>
