<svg width="20" height="34" viewBox="0 0 20 34" fill="none" xmlns="http://www.w3.org/2000/svg">
<path d="M18.1421 8.66667V9.50667C18.606 9.50667 18.9821 9.13059 18.9821 8.66667H18.1421ZM18.1421 1H18.9821C18.9821 0.536081 18.606 0.16 18.1421 0.16V1ZM5.73732 15.1191V15.9591C6.20124 15.9591 6.57732 15.583 6.57732 15.1191H5.73732ZM1 15.1191V14.2791C0.536081 14.2791 0.16 14.6551 0.16 15.1191H1ZM1 21.9762H0.16C0.16 22.4401 0.536081 22.8162 1 22.8162L1 21.9762ZM5.73732 21.9762H6.57732C6.57732 21.5123 6.20124 21.1362 5.73732 21.1362V21.9762ZM5.73732 32.2619H4.89732C4.89732 32.7259 5.2734 33.1019 5.73732 33.1019V32.2619ZM13.404 32.2619V33.1019C13.8679 33.1019 14.244 32.7259 14.244 32.2619H13.404ZM13.404 21.9762V21.1362C12.9401 21.1362 12.564 21.5123 12.564 21.9762H13.404ZM17.2857 21.9762V22.8162C17.6712 22.8162 18.0072 22.5539 18.1006 22.1799L17.2857 21.9762ZM19 15.1191L19.8149 15.3228C19.8777 15.0718 19.8213 14.806 19.6621 14.6021C19.5029 14.3982 19.2587 14.2791 19 14.2791V15.1191ZM13.404 15.1191H12.564C12.564 15.583 12.9401 15.9591 13.404 15.9591V15.1191ZM14.3623 7.82667C13.3691 7.82667 12.564 8.63181 12.564 9.625H14.244C14.244 9.55965 14.297 9.50667 14.3623 9.50667V7.82667ZM18.1421 7.82667H14.3623V9.50667H18.1421V7.82667ZM17.3021 1V8.66667H18.9821V1H17.3021ZM14.3623 1.84H18.1421V0.16H14.3623V1.84ZM6.57732 9.625C6.57732 5.32546 10.0628 1.84 14.3623 1.84V0.16C9.13495 0.16 4.89732 4.39763 4.89732 9.625H6.57732ZM6.57732 15.1191V9.625H4.89732V15.1191H6.57732ZM1 15.9591H5.73732V14.2791H1V15.9591ZM1.84 21.9762V15.1191H0.16V21.9762H1.84ZM5.73732 21.1362H1V22.8162H5.73732V21.1362ZM6.57732 32.2619V21.9762H4.89732V32.2619H6.57732ZM13.404 31.4219H5.73732V33.1019H13.404V31.4219ZM12.564 21.9762V32.2619H14.244V21.9762H12.564ZM17.2857 21.1362H13.404V22.8162H17.2857V21.1362ZM18.1851 14.9153L16.4708 21.7725L18.1006 22.1799L19.8149 15.3228L18.1851 14.9153ZM13.404 15.9591H19V14.2791H13.404V15.9591ZM12.564 9.625V15.1191H14.244V9.625H12.564Z" fill="#F0F2F5"/>
</svg>
