<svg width="35" height="35" viewBox="0 0 35 35" fill="none" xmlns="http://www.w3.org/2000/svg">
<path d="M17.249 5.0625C17.249 2.81884 19.0679 1 21.3115 1V1C23.5552 1 25.374 2.81884 25.374 5.0625V12.4583C25.374 15.1047 23.2287 17.25 20.5824 17.25H17.249V5.0625Z" stroke="#161513" stroke-width="1.68" stroke-linejoin="round"/>
<path d="M9.125 22.0417C9.125 19.3953 11.2703 17.25 13.9167 17.25H17.25V29.4375C17.25 31.6812 15.4312 33.5 13.1875 33.5V33.5C10.9438 33.5 9.125 31.6812 9.125 29.4375V22.0417Z" stroke="#161513" stroke-width="1.68" stroke-linejoin="round"/>
<path d="M1 13.1875C1 10.9438 2.81884 9.125 5.0625 9.125H12.4583C15.1047 9.125 17.25 11.2703 17.25 13.9167V17.25H5.0625C2.81884 17.25 1 15.4312 1 13.1875V13.1875Z" stroke="#161513" stroke-width="1.68" stroke-linejoin="round"/>
<path d="M17.249 17.25H29.4365C31.6802 17.25 33.499 19.0688 33.499 21.3125V21.3125C33.499 23.5562 31.6802 25.375 29.4365 25.375H22.0407C19.3943 25.375 17.249 23.2297 17.249 20.5833V17.25Z" stroke="#161513" stroke-width="1.68" stroke-linejoin="round"/>
<path d="M25.375 17.25V13.1875C25.375 10.9438 27.1938 9.125 29.4375 9.125C31.6812 9.125 33.5 10.9438 33.5 13.1875C33.5 15.4312 31.6812 17.25 29.4375 17.25H25.375Z" stroke="#161513" stroke-width="1.68" stroke-linejoin="round"/>
<path d="M17.25 9.125L13.1875 9.125C10.9438 9.125 9.125 7.30616 9.125 5.0625C9.125 2.81884 10.9438 1 13.1875 1C15.4312 1 17.25 2.81884 17.25 5.0625L17.25 9.125Z" stroke="#161513" stroke-width="1.68" stroke-linejoin="round"/>
<path d="M9.125 17.25L9.125 21.3125C9.125 23.5562 7.30616 25.375 5.0625 25.375C2.81884 25.375 1 23.5562 1 21.3125C0.999999 19.0688 2.81884 17.25 5.0625 17.25L9.125 17.25Z" stroke="#161513" stroke-width="1.68" stroke-linejoin="round"/>
<path d="M17.25 25.375L21.3125 25.375C23.5562 25.375 25.375 27.1938 25.375 29.4375C25.375 31.6812 23.5562 33.5 21.3125 33.5C19.0688 33.5 17.25 31.6812 17.25 29.4375L17.25 25.375Z" stroke="#161513" stroke-width="1.68" stroke-linejoin="round"/>
</svg>
